<svg version="1.1" id="Layer_1" xmlns="http://www.w3.org/2000/svg" x="0px"
	 y="0px"
	 width="100%" viewBox="0 0 992 992" enable-background="new 0 0 992 992"
	 xml:space="preserve">
<path fill="#F8A3BB" opacity="1.000000" stroke="none"
	d="
M334.927185,748.280273
	C316.201202,741.817444 301.547638,731.098877 292.764984,713.261597
	C287.234436,702.029297 287.799591,690.414612 290.336365,678.010498
	C282.699829,679.880920 275.473938,682.115906 267.921509,682.824280
	C245.897934,684.889893 222.919067,674.633545 218.159393,648.457825
	C215.650955,634.662720 219.215744,621.694824 225.819107,609.520874
	C238.921158,585.366150 258.955109,568.085999 281.667664,553.532654
	C301.544495,540.796265 322.883392,531.112854 345.229462,523.589600
	C346.459961,523.175354 347.643890,522.622925 349.294342,521.954651
	C344.525513,512.713989 340.872467,503.340027 338.591187,493.423615
	C336.077972,482.498993 335.367249,471.359009 335.041443,460.285553
	C334.307831,435.351715 334.154999,410.359253 340.772614,385.979523
	C353.737305,338.217010 381.232208,301.727997 425.430847,278.719269
	C447.861786,267.042267 471.947723,261.490692 497.318634,260.499237
	C530.187439,259.214752 561.225464,265.402466 589.863281,281.628693
	C634.607300,306.980774 660.916260,345.837402 671.284912,395.762726
	C676.223511,419.541901 675.588867,443.631836 674.545532,467.776184
	C673.773071,485.650452 670.711243,502.743347 662.622864,518.792236
	C662.496887,519.042236 662.651062,519.433533 662.698364,520.091614
	C669.795715,523.308167 677.126221,526.403259 684.259033,529.901367
	C719.650696,547.258057 750.197632,570.702393 773.953308,602.411926
	C783.218384,614.779053 789.262085,628.319519 788.494324,644.449341
	C787.749084,660.105225 779.235962,673.201782 764.469055,678.589355
	C760.492859,680.039978 760.026611,681.839111 760.911804,685.621094
	C763.098572,694.964478 763.287048,704.435181 760.680481,713.767700
	C755.111572,733.706055 736.996826,746.635010 714.301453,747.327148
	C686.785706,748.166260 663.803711,737.340332 643.225037,720.159851
	C633.061829,711.674866 624.498108,701.699951 616.507263,691.203552
	C615.121521,689.383301 613.744263,687.556580 611.523315,684.623962
	C612.029419,712.986328 601.890381,735.236877 580.716614,752.014282
	C565.734253,763.885803 548.541016,770.341003 529.258240,769.162354
	C506.691559,767.783020 488.026154,758.018860 473.448395,740.722351
	C458.854248,723.406433 454.971741,702.923828 456.511200,680.838806
	C449.172485,694.338074 441.805969,707.455627 432.126404,719.206726
	C408.462036,747.935425 371.010376,759.355286 334.927185,748.280273
M611.578735,561.060913
	C615.456177,557.909058 619.523010,554.961304 623.178345,551.570007
	C639.053589,536.841248 653.622742,521.065613 660.350159,499.824158
	C664.865845,485.566254 665.640503,470.764740 665.699097,455.899353
	C665.779907,435.420349 666.202637,414.937775 661.601685,394.769318
	C651.474548,350.376465 628.038025,315.212738 588.624023,291.827057
	C554.072144,271.326324 516.492920,265.515259 476.970947,271.821747
	C444.630127,276.982330 416.305542,290.550781 392.901611,313.552216
	C360.177429,345.713593 345.472260,385.556000 344.410309,430.861206
	C344.078674,445.008881 344.163330,459.169525 345.263428,473.308380
	C346.736267,492.238129 351.247345,510.138824 363.098877,525.434753
	C405.118103,579.666077 461.066925,601.212830 528.349976,594.288208
	C558.708618,591.163818 586.307739,579.621582 611.578735,561.060913
M466.501648,616.104675
	C466.988007,611.368286 469.069458,606.872864 468.869019,601.852234
	C468.060944,601.640259 467.444427,601.449890 466.815704,601.317566
	C440.236725,595.722412 415.764221,585.277771 393.944763,569.039551
	C390.208008,566.258545 388.099396,567.028137 385.099487,569.736816
	C367.276031,585.830017 350.263367,602.695923 335.388580,621.594116
	C322.396088,638.100769 310.036804,655.062317 301.565216,674.449158
	C293.712799,692.418945 296.823853,709.102356 310.566315,723.078003
	C322.384186,735.096252 337.019165,741.183044 353.644501,742.876404
	C378.635742,745.421875 400.319183,738.246643 418.439789,720.765869
	C433.484497,706.252136 442.716034,687.939209 451.487335,669.385071
	C454.891815,662.183350 458.941681,655.190552 460.522583,647.256836
	C462.534210,637.161316 464.350006,627.026733 466.501648,616.104675
M692.296570,600.208069
	C675.246155,584.502136 657.230530,569.965698 638.847046,555.862061
	C636.101379,553.755554 634.351440,553.578796 631.697327,556.115601
	C620.683167,566.642517 608.309204,575.343018 594.833069,582.462219
	C590.484192,584.759705 586.121033,587.030151 581.567200,589.416321
	C583.329468,593.388000 584.829102,596.896606 586.431580,600.357544
	C595.246399,619.395630 604.008911,638.446533 608.703857,659.054871
	C609.325256,661.782532 609.422058,664.669678 611.000427,667.166321
	C623.997009,687.723877 638.564270,706.949036 658.928345,720.840759
	C677.142883,733.266052 696.928833,740.609192 719.535217,737.725586
	C742.256836,734.827209 756.101868,716.705139 753.110596,693.969666
	C751.806702,684.059387 748.497559,674.921265 743.971436,666.138855
	C731.061157,641.087585 713.049805,620.017090 692.296570,600.208069
M475.357330,617.733337
	C473.471802,627.698364 471.278809,637.617065 469.767975,647.638550
	C467.046631,665.688904 463.928070,683.665955 466.131104,702.152283
	C470.279236,736.960632 504.637360,763.273438 537.723877,759.873779
	C563.790161,757.195374 582.883545,743.877319 594.911194,720.849365
	C604.454407,702.578064 604.235840,683.108276 600.193054,663.400452
	C595.904968,642.497192 587.006775,623.327026 578.205078,604.108398
	C573.039612,592.829712 573.122559,593.034424 561.235840,596.590454
	C538.447998,603.407654 515.245789,606.798767 491.384857,604.420227
	C478.764557,603.162170 478.750671,603.309204 475.875519,615.457947
	C475.760620,615.943481 475.604950,616.419312 475.357330,617.733337
M335.340332,536.941406
	C307.861389,547.733093 282.100983,561.527161 260.018311,581.372192
	C243.644547,596.086731 230.032318,612.813293 226.835724,635.575256
	C224.616608,651.376953 232.398331,668.318359 251.848694,672.662354
	C265.234283,675.651855 277.909393,672.658264 290.400513,667.910828
	C293.739655,666.641785 295.872559,664.694031 297.581665,661.552368
	C314.693207,630.098022 337.227295,602.853333 362.899231,578.087280
	C369.091705,572.113342 375.424316,566.284607 381.517212,560.553894
	C381.244843,559.710449 381.235748,559.310486 381.031342,559.102722
	C372.509705,550.442627 363.650238,542.093018 356.443512,532.229736
	C355.139008,530.444397 353.535431,530.426514 351.586914,531.147461
	C346.437012,533.052856 341.237122,534.823242 335.340332,536.941406
M690.901184,543.652100
	C681.211426,538.454895 671.297791,533.731873 661.036316,529.773438
	C659.299927,529.103638 657.290283,527.554016 655.560608,529.677246
	C651.088806,535.166443 646.727966,540.746033 642.204468,546.438538
	C643.543274,547.650085 644.456970,548.602905 645.493286,549.395508
	C657.791138,558.801025 669.998657,568.319702 681.756958,578.398193
	C711.301453,603.722046 737.762085,631.599609 754.730774,667.234253
	C756.435669,670.814575 758.526978,671.215515 761.887756,669.907837
	C771.281677,666.252380 776.439514,659.132141 778.645142,649.651062
	C781.865906,635.806641 777.404785,623.534180 769.773315,612.413086
	C749.570435,582.972473 722.476807,561.264404 690.901184,543.652100
z"/>
<path fill="#F8A3BB" opacity="1.000000" stroke="none"
	d="
M415.419952,479.411285
	C408.259033,465.665955 408.515442,452.497284 417.173157,439.943573
	C423.928925,430.147644 436.175537,425.894531 447.075439,429.057648
	C457.947144,432.212585 467.519226,443.664368 468.322632,454.514130
	C468.357361,454.982971 468.135193,455.470795 467.949097,456.340393
	C464.587982,456.654938 461.139496,456.845886 457.733551,457.333893
	C454.422668,457.808258 450.094971,458.476471 449.927704,462.200256
	C449.731964,466.559021 454.449249,466.922913 457.753998,467.541565
	C460.964600,468.142670 464.214783,468.797424 467.533112,468.287628
	C467.293915,478.885437 457.809296,489.951996 446.827698,492.979431
	C434.873566,496.274933 423.330414,491.372070 415.419952,479.411285
M426.706329,451.731903
	C428.240356,454.420868 430.480377,455.351868 433.362366,454.157104
	C435.416138,453.305725 436.324799,451.514282 436.124207,449.374817
	C435.901642,447.000763 434.477386,445.248932 432.100525,445.015045
	C427.820496,444.593811 426.154816,446.981903 426.706329,451.731903
z"/>
<path fill="#F8A3BB" opacity="1.000000" stroke="none"
	d="
M591.647156,483.600494
	C577.100586,499.249451 555.615662,496.651794 545.446167,478.319366
	C535.235413,459.912537 543.373535,435.755859 561.893494,429.498199
	C579.079285,423.691284 598.765259,437.776123 598.723694,456.095520
	C595.330872,456.493561 591.883728,456.776703 588.484741,457.346466
	C586.713623,457.643341 584.883301,458.191071 583.331055,459.069580
	C579.486938,461.245148 579.587280,463.985809 583.557861,466.011810
	C588.111084,468.335083 593.216553,468.025513 598.731079,468.632629
	C597.955811,474.443176 595.220032,479.013184 591.647156,483.600494
M558.403259,451.846741
	C559.552185,454.350128 561.591675,455.117126 564.095459,454.450714
	C565.953735,453.956146 567.250183,452.604767 567.555725,450.649750
	C568.094971,447.199005 566.330811,445.081116 563.058228,444.908478
	C558.915344,444.689972 557.722961,447.388153 558.403259,451.846741
z"/>
<path fill="#F8A3BB" opacity="1.000000" stroke="none"
	d="
M538.411499,509.283295
	C535.110657,527.586121 520.794495,539.027649 502.555969,538.314392
	C486.479553,537.685669 473.323975,524.569885 471.372681,507.363861
	C470.994507,504.029205 471.322296,500.953674 475.105652,500.437073
	C479.068756,499.895844 479.917542,503.023438 480.275421,506.260590
	C481.585541,518.110046 488.466919,526.087402 499.628052,528.786743
	C513.593079,532.164185 528.075256,522.027405 529.677795,507.747253
	C529.751892,507.086884 529.744934,506.417847 529.800415,505.754913
	C530.046997,502.806915 531.234131,500.247040 534.479553,500.374023
	C537.977539,500.510895 539.051575,503.231964 538.906006,506.422913
	C538.868530,507.244965 538.611084,508.056976 538.411499,509.283295
z"/>
</svg>
